<svg xmlns="http://www.w3.org/2000/svg" xmlns:xlink="http://www.w3.org/1999/xlink" width="500" zoomAndPan="magnify" viewBox="0 0 375 374.999991" height="500" preserveAspectRatio="xMidYMid meet" version="1.0"><defs><g/><clipPath id="a8c0793886"><path d="M 125 212 L 128 212 L 128 215.355469 L 125 215.355469 Z M 125 212 " clip-rule="nonzero"/></clipPath><clipPath id="0c5647e335"><path d="M 81 168 L 165 168 L 165 228 L 81 228 Z M 81 168 " clip-rule="nonzero"/></clipPath><clipPath id="d0feafe09c"><path d="M 147.820312 246.636719 L 64.488281 198.976562 L 82.359375 167.726562 L 165.695312 215.386719 Z M 147.820312 246.636719 " clip-rule="nonzero"/></clipPath><clipPath id="a5b4337844"><path d="M 147.820312 246.636719 L 64.488281 198.976562 L 82.359375 167.726562 L 165.695312 215.386719 Z M 147.820312 246.636719 " clip-rule="nonzero"/></clipPath><clipPath id="0d574b181b"><path d="M 147.820312 246.636719 L 64.488281 198.976562 L 82.359375 167.726562 L 165.695312 215.386719 Z M 147.820312 246.636719 " clip-rule="nonzero"/></clipPath><clipPath id="551aafe838"><path d="M 90 171 L 165 171 L 165 225 L 90 225 Z M 90 171 " clip-rule="nonzero"/></clipPath><clipPath id="2c1625cebf"><path d="M 148.726562 241.355469 L 75.160156 199.277344 L 91.171875 171.285156 L 164.738281 213.359375 Z M 148.726562 241.355469 " clip-rule="nonzero"/></clipPath><clipPath id="c74b002536"><path d="M 148.726562 241.355469 L 75.160156 199.277344 L 91.171875 171.285156 L 164.738281 213.359375 Z M 148.726562 241.355469 " clip-rule="nonzero"/></clipPath><clipPath id="b1b989303c"><path d="M 148.726562 241.355469 L 75.160156 199.277344 L 91.171875 171.285156 L 164.738281 213.359375 Z M 148.726562 241.355469 " clip-rule="nonzero"/></clipPath></defs><path fill="#121e2e" d="M 125.625 156.28125 L 125.621094 163.664062 C 126.171875 163.683594 126.699219 163.699219 127.214844 163.71875 C 127.441406 163.726562 127.660156 163.734375 127.882812 163.746094 L 128.023438 156.214844 L 127.992188 156.1875 C 127.375 155.523438 126.996094 154.84375 126.878906 154.203125 C 126.753906 154.863281 126.351562 155.550781 125.691406 156.214844 L 125.625 156.28125 " fill-opacity="1" fill-rule="nonzero"/><path fill="#121e2e" d="M 125.609375 209.234375 C 125.742188 209.394531 125.886719 209.554688 126.035156 209.707031 C 126.46875 209.277344 126.839844 208.816406 127.089844 208.359375 L 127.125 206.371094 C 127.039062 206.246094 126.925781 206.132812 126.800781 206.023438 C 126.761719 206.003906 126.714844 205.972656 126.648438 205.925781 C 126.503906 205.828125 126.285156 205.675781 125.996094 205.53125 C 125.855469 205.59375 125.730469 205.660156 125.609375 205.738281 L 125.609375 209.234375 " fill-opacity="1" fill-rule="nonzero"/><g clip-path="url(#a8c0793886)"><path fill="#121e2e" d="M 125.609375 212.605469 L 125.609375 215.457031 L 126.960938 215.457031 L 127.007812 212.953125 C 126.699219 212.785156 126.375 212.574219 126.039062 212.335938 C 125.902344 212.425781 125.757812 212.519531 125.609375 212.605469 " fill-opacity="1" fill-rule="nonzero"/></g><path fill="#121e2e" d="M 125.621094 171.921875 C 125.941406 172.046875 126.289062 172.179688 126.679688 172.324219 C 126.75 172.300781 126.8125 172.277344 126.878906 172.257812 C 127.199219 172.035156 127.484375 171.847656 127.746094 171.671875 L 127.808594 168.148438 C 127.730469 168.136719 127.65625 168.128906 127.582031 168.121094 C 127.574219 168.113281 127.425781 168.089844 127.199219 168.054688 L 127.109375 168.054688 C 126.359375 168.046875 125.753906 168.152344 125.738281 168.152344 C 125.699219 168.160156 125.660156 168.160156 125.621094 168.160156 L 125.621094 171.921875 " fill-opacity="1" fill-rule="nonzero"/><path fill="#121e2e" d="M 126.203125 185.601562 C 126.667969 185.535156 127.101562 185.441406 127.5 185.308594 L 127.65625 176.6875 C 127.339844 176.59375 127.011719 176.507812 126.675781 176.429688 C 126.550781 176.453125 126.132812 176.550781 125.617188 176.6875 L 125.617188 185.453125 C 125.804688 185.511719 126 185.558594 126.203125 185.601562 " fill-opacity="1" fill-rule="nonzero"/><path fill="#121e2e" d="M 126.835938 153.140625 C 126.855469 153.214844 126.867188 153.289062 126.882812 153.363281 C 126.898438 153.265625 126.917969 153.171875 126.949219 153.078125 C 127.136719 152.546875 127.53125 152.109375 128.101562 151.785156 L 128.253906 143.152344 C 129.355469 142.628906 130.109375 141.507812 130.109375 140.214844 C 130.105469 138.414062 128.644531 136.957031 126.847656 136.960938 C 125.050781 136.964844 123.59375 138.421875 123.597656 140.222656 C 123.601562 141.585938 124.4375 142.746094 125.625 143.234375 L 125.625 151.761719 C 126.234375 152.105469 126.65625 152.574219 126.835938 153.140625 " fill-opacity="1" fill-rule="nonzero"/><path fill="#121e2e" d="M 127.4375 188.953125 C 127.371094 188.945312 127.308594 188.945312 127.242188 188.945312 L 127.234375 188.9375 C 126.75 189.007812 126.230469 189.042969 125.667969 189.050781 L 125.613281 189.042969 L 125.613281 197.324219 C 125.84375 197.511719 126.082031 197.6875 126.328125 197.84375 C 126.652344 197.628906 126.976562 197.382812 127.289062 197.113281 L 127.4375 188.953125 " fill-opacity="1" fill-rule="nonzero"/><path fill="#121e2e" d="M 126.390625 202.003906 C 126.34375 201.824219 126.265625 201.652344 126.160156 201.472656 C 126.015625 201.675781 125.917969 201.867188 125.863281 202.054688 L 125.855469 202.070312 C 125.824219 202.265625 125.78125 202.582031 125.832031 202.902344 C 125.84375 203.007812 125.871094 203.113281 125.914062 203.214844 C 125.949219 203.300781 125.996094 203.390625 126.050781 203.476562 L 126.074219 203.5 C 126.488281 203.066406 126.441406 202.351562 126.390625 202.003906 " fill-opacity="1" fill-rule="nonzero"/><path fill="#121e2e" d="M 128.179688 205.035156 L 128.140625 205.003906 C 128.03125 204.921875 127.890625 204.832031 127.730469 204.734375 C 127.679688 204.703125 127.632812 204.675781 127.578125 204.648438 C 127.527344 204.617188 127.472656 204.582031 127.421875 204.558594 C 127.335938 204.507812 127.242188 204.464844 127.160156 204.417969 C 126.960938 204.324219 126.785156 204.25 126.683594 204.226562 C 126.4375 204.167969 126.222656 204.0625 126.046875 203.921875 C 126.007812 203.894531 125.96875 203.855469 125.929688 203.8125 C 125.894531 203.777344 125.855469 203.738281 125.824219 203.691406 C 125.734375 203.578125 125.667969 203.441406 125.609375 203.300781 C 125.480469 202.945312 125.449219 202.503906 125.546875 201.996094 C 125.566406 201.933594 125.585938 201.863281 125.609375 201.800781 C 125.691406 201.605469 125.800781 201.410156 125.953125 201.207031 L 125.953125 201.203125 C 125.917969 201.164062 125.882812 201.117188 125.839844 201.0625 C 125.78125 200.980469 125.699219 200.878906 125.613281 200.773438 L 125.535156 200.683594 C 125.488281 200.632812 125.4375 200.578125 125.386719 200.53125 C 125.347656 200.492188 125.3125 200.453125 125.273438 200.417969 L 125.230469 200.378906 C 125.175781 200.328125 125.125 200.273438 125.066406 200.226562 L 125.03125 200.1875 C 124.988281 200.15625 124.945312 200.117188 124.90625 200.074219 L 124.832031 200.015625 L 124.632812 200.234375 C 123.785156 201.191406 123.457031 202.230469 123.703125 203.160156 C 123.808594 203.566406 124.035156 203.9375 124.34375 204.25 C 124.382812 204.289062 124.425781 204.328125 124.46875 204.367188 L 124.523438 204.410156 L 124.59375 204.472656 C 124.636719 204.507812 124.675781 204.539062 124.722656 204.566406 L 124.78125 204.605469 C 124.902344 204.6875 125.027344 204.761719 125.164062 204.832031 C 125.304688 204.902344 125.453125 204.964844 125.609375 205.019531 L 125.617188 205.019531 C 125.757812 205.070312 125.878906 205.121094 126 205.175781 C 126.066406 205.210938 126.125 205.242188 126.1875 205.269531 C 126.253906 205.308594 126.320312 205.339844 126.378906 205.371094 C 126.570312 205.484375 126.726562 205.589844 126.835938 205.660156 C 126.898438 205.707031 126.949219 205.746094 126.980469 205.757812 L 127 205.777344 L 127.035156 205.804688 L 127.039062 205.8125 L 127.042969 205.8125 L 127.132812 205.886719 C 127.496094 206.238281 127.695312 206.644531 127.730469 207.105469 C 127.769531 207.722656 127.507812 208.363281 127.078125 208.976562 C 126.847656 209.308594 126.566406 209.628906 126.261719 209.933594 C 126.507812 210.179688 126.773438 210.414062 127.050781 210.628906 C 127.140625 210.699219 127.238281 210.777344 127.335938 210.847656 C 128.429688 209.832031 129.3125 208.648438 129.328125 207.679688 C 129.347656 206.570312 128.863281 205.65625 128.191406 205.039062 L 128.179688 205.035156 " fill-opacity="1" fill-rule="nonzero"/><path fill="#121e2e" d="M 131.34375 187.410156 L 131.300781 187.390625 L 131.292969 187.386719 C 131.25 187.355469 131.210938 187.332031 131.167969 187.300781 C 131.125 187.273438 131.078125 187.242188 131.03125 187.214844 C 130.988281 187.183594 130.945312 187.152344 130.902344 187.125 C 130.042969 186.570312 129.238281 186.1875 127.921875 186.136719 C 127.769531 186.128906 127.632812 186.113281 127.488281 186.105469 C 127.023438 186.066406 126.589844 186.007812 126.183594 185.921875 C 126.027344 185.890625 125.878906 185.859375 125.734375 185.816406 C 125.691406 185.808594 125.652344 185.800781 125.617188 185.792969 C 125.503906 185.757812 125.402344 185.714844 125.289062 185.683594 C 124.289062 185.347656 123.480469 184.832031 122.886719 184.132812 C 121.601562 182.609375 121.636719 180.585938 121.769531 179.515625 C 122.039062 178.597656 122.378906 178.027344 122.882812 177.625 C 123.019531 177.464844 123.222656 177.316406 123.460938 177.175781 C 124.074219 176.820312 124.941406 176.539062 125.617188 176.351562 C 125.734375 176.328125 125.84375 176.296875 125.941406 176.269531 L 126.050781 176.242188 L 126.015625 176.234375 C 125.894531 176.199219 125.761719 176.160156 125.617188 176.121094 C 125.042969 175.957031 124.316406 175.761719 123.671875 175.621094 C 123.253906 175.53125 121.84375 174.933594 121.480469 174.785156 L 121.480469 174.78125 L 121.464844 174.792969 C 121.390625 174.84375 121.273438 174.925781 121.128906 175.03125 C 121.050781 175.097656 120.960938 175.167969 120.863281 175.246094 C 120.78125 175.320312 120.695312 175.390625 120.617188 175.464844 C 120.570312 175.511719 120.515625 175.558594 120.464844 175.605469 C 120.03125 176.03125 119.566406 176.585938 119.304688 177.238281 C 119.242188 177.367188 119.183594 177.5 119.128906 177.632812 C 118.566406 179.03125 118.542969 180.550781 118.804688 181.75 C 118.832031 181.855469 118.851562 181.953125 118.878906 182.046875 L 118.886719 182.085938 C 118.910156 182.171875 118.9375 182.25 118.960938 182.332031 L 118.980469 182.390625 C 119.003906 182.464844 119.03125 182.535156 119.0625 182.609375 L 119.082031 182.667969 C 119.121094 182.757812 119.152344 182.839844 119.195312 182.917969 L 119.34375 183.242188 C 119.359375 183.28125 119.382812 183.328125 119.398438 183.367188 C 119.875 184.378906 120.480469 185.613281 121.585938 186.632812 C 121.625 186.671875 121.664062 186.707031 121.710938 186.738281 C 121.746094 186.773438 121.785156 186.808594 121.824219 186.84375 C 122.722656 187.597656 123.929688 188.203125 125.613281 188.476562 C 126.113281 188.554688 126.648438 188.605469 127.230469 188.621094 L 127.25 188.621094 C 127.304688 188.625 127.371094 188.625 127.441406 188.628906 C 127.585938 188.636719 127.753906 188.644531 127.941406 188.660156 C 128.085938 188.671875 128.230469 188.691406 128.390625 188.714844 C 128.976562 188.8125 129.625 189.007812 130.074219 189.433594 L 130.105469 189.457031 C 130.542969 189.828125 130.765625 190.265625 130.867188 190.667969 C 131.402344 192.699219 129.539062 195.6875 127.28125 197.535156 C 127.0625 197.714844 126.839844 197.886719 126.613281 198.042969 C 126.847656 198.199219 127.0625 198.355469 127.269531 198.515625 C 127.554688 198.753906 127.8125 199 128.042969 199.253906 C 128.1875 199.140625 128.332031 199.027344 128.484375 198.914062 C 130.742188 197.164062 133.308594 195.1875 133.160156 192.1875 C 133.167969 192.011719 133.25 189.132812 131.34375 187.410156 " fill-opacity="1" fill-rule="nonzero"/><path fill="#121e2e" d="M 128.191406 211.796875 C 127.933594 211.648438 127.648438 211.460938 127.355469 211.257812 C 127.308594 211.222656 127.269531 211.191406 127.222656 211.160156 C 127.175781 211.128906 127.136719 211.09375 127.09375 211.0625 L 127.042969 211.023438 C 126.699219 210.761719 126.351562 210.472656 126.03125 210.15625 L 125.917969 210.050781 C 125.878906 210.011719 125.839844 209.96875 125.804688 209.929688 C 125.738281 209.863281 125.675781 209.796875 125.609375 209.726562 C 124.828125 208.863281 124.265625 207.886719 124.359375 206.988281 C 124.433594 206.320312 124.851562 205.777344 125.609375 205.367188 L 125.515625 205.328125 L 125.507812 205.324219 C 125.410156 205.289062 125.3125 205.25 125.214844 205.210938 C 125.148438 205.179688 125.085938 205.152344 125.023438 205.121094 L 124.972656 205.089844 C 124.855469 205.035156 124.742188 204.964844 124.636719 204.894531 C 124.589844 204.859375 124.535156 204.828125 124.484375 204.792969 L 124.40625 204.738281 L 124.308594 204.648438 L 124.300781 204.652344 C 123.445312 205.230469 122.761719 206.230469 122.742188 207.511719 C 122.730469 208.511719 123.613281 209.746094 124.710938 210.8125 L 124.808594 210.902344 L 124.824219 210.914062 L 124.832031 210.929688 L 124.851562 210.945312 L 124.953125 211.03125 C 125.164062 211.234375 125.386719 211.421875 125.609375 211.605469 C 125.746094 211.714844 125.878906 211.816406 126.007812 211.917969 C 126.058594 211.953125 126.101562 211.988281 126.148438 212.019531 C 126.191406 212.054688 126.242188 212.085938 126.285156 212.121094 C 126.535156 212.292969 126.78125 212.453125 127.011719 212.589844 C 127.339844 212.78125 127.644531 212.929688 127.910156 213.023438 L 127.953125 213.046875 C 128.121094 213.183594 128.558594 212.941406 128.65625 212.574219 C 128.730469 212.28125 128.570312 212.011719 128.191406 211.796875 " fill-opacity="1" fill-rule="nonzero"/><path fill="#121e2e" d="M 131.484375 154.753906 C 130.960938 154.574219 130.609375 154.199219 130.707031 153.917969 C 130.804688 153.636719 131.308594 153.554688 131.835938 153.734375 C 132.359375 153.917969 132.613281 154.574219 132.613281 154.574219 C 132.613281 154.574219 132.015625 154.933594 131.484375 154.753906 Z M 137.367188 165.003906 C 138.898438 163.101562 139.429688 160.421875 138.828125 157.644531 C 137.421875 153.855469 135.769531 152.71875 134.335938 152.105469 C 133.171875 151.707031 131.972656 151.492188 130.875 151.492188 C 129.707031 151.5 128.746094 151.738281 128.09375 152.164062 C 127.679688 152.433594 127.394531 152.773438 127.253906 153.183594 C 126.992188 153.9375 127.273438 154.84375 128.03125 155.742188 C 128.09375 155.816406 128.15625 155.894531 128.226562 155.96875 C 129.160156 156.972656 130.570312 157.832031 132.195312 158.386719 C 133.242188 158.75 134.46875 158.804688 135.816406 158.546875 C 135.863281 158.535156 135.910156 158.546875 135.945312 158.578125 C 135.980469 158.601562 136.007812 158.648438 136.007812 158.691406 C 136.058594 159.480469 135.914062 160.410156 135.585938 161.46875 C 134.730469 163.414062 133.105469 163.980469 130.777344 164.085938 C 131.777344 164.425781 132.566406 165.039062 133.136719 165.914062 C 133.4375 166.367188 133.65625 166.878906 133.808594 167.414062 C 135.269531 166.921875 136.476562 166.113281 137.367188 165.003906 " fill-opacity="1" fill-rule="nonzero"/><path fill="#121e2e" d="M 131.71875 174.957031 C 131.675781 174.925781 131.632812 174.890625 131.585938 174.851562 C 131.535156 174.820312 131.488281 174.789062 131.441406 174.753906 C 131.394531 174.726562 131.351562 174.703125 131.308594 174.679688 C 131.042969 174.527344 130.617188 174.300781 130.128906 174.046875 C 129.253906 173.660156 128.441406 173.332031 127.722656 173.0625 C 127.375 172.925781 127.042969 172.804688 126.738281 172.6875 L 126.671875 172.664062 C 126.589844 172.632812 126.511719 172.605469 126.4375 172.574219 C 126.351562 172.542969 126.273438 172.515625 126.199219 172.488281 C 125.996094 172.410156 125.804688 172.335938 125.617188 172.265625 C 123.824219 171.554688 122.867188 170.945312 123.066406 169.433594 C 123.132812 168.945312 123.347656 168.554688 123.710938 168.261719 L 123.71875 168.257812 C 123.421875 168.257812 123.136719 168.253906 122.851562 168.238281 L 122.84375 168.234375 C 121.710938 168.167969 120.65625 167.96875 119.710938 167.648438 L 119.707031 167.660156 C 119.277344 169.378906 119.472656 171.382812 120.035156 172.839844 C 120.417969 173.511719 120.90625 174.019531 121.472656 174.410156 L 121.539062 174.457031 C 121.554688 174.460938 121.582031 174.480469 121.632812 174.5 C 121.683594 174.515625 121.746094 174.542969 121.820312 174.578125 C 122.34375 174.800781 123.410156 175.238281 123.738281 175.308594 C 124.359375 175.445312 125.054688 175.625 125.617188 175.785156 C 126.15625 175.941406 126.570312 176.066406 126.691406 176.105469 L 126.726562 176.113281 L 126.730469 176.113281 C 126.84375 176.140625 126.960938 176.164062 127.074219 176.195312 C 127.199219 176.222656 127.316406 176.261719 127.441406 176.292969 C 127.515625 176.3125 127.585938 176.332031 127.660156 176.351562 C 129.308594 176.835938 130.667969 177.625 131.179688 179.574219 C 131.285156 180.671875 131.257812 182.695312 129.921875 184.183594 C 129.3125 184.859375 128.5 185.339844 127.496094 185.648438 C 127.375 185.683594 127.253906 185.722656 127.128906 185.75 C 127.242188 185.765625 127.371094 185.773438 127.492188 185.777344 C 127.640625 185.796875 127.78125 185.808594 127.933594 185.816406 C 129.363281 185.875 130.246094 186.3125 131.152344 186.910156 L 131.183594 186.878906 C 132.265625 185.882812 132.875 184.652344 133.394531 183.605469 C 133.480469 183.425781 133.570312 183.25 133.652344 183.089844 C 134.269531 181.882812 134.589844 179.8125 133.925781 177.898438 C 133.507812 176.707031 132.761719 175.726562 131.71875 174.957031 " fill-opacity="1" fill-rule="nonzero"/><path fill="#121e2e" d="M 127.894531 199.574219 C 127.859375 199.53125 127.824219 199.488281 127.789062 199.453125 C 127.632812 199.273438 127.453125 199.097656 127.257812 198.933594 C 126.980469 198.683594 126.667969 198.453125 126.328125 198.234375 L 126.289062 198.207031 C 126.253906 198.183594 126.21875 198.160156 126.179688 198.132812 C 126.132812 198.101562 126.082031 198.070312 126.035156 198.035156 C 125.890625 197.941406 125.753906 197.835938 125.613281 197.730469 C 123.175781 195.851562 121.550781 192.667969 122.121094 190.683594 C 122.367188 189.835938 123.105469 188.832031 125.195312 188.734375 L 125.242188 188.734375 C 123.613281 188.421875 122.4375 187.796875 121.550781 187.039062 L 121.539062 187.042969 C 119.40625 188.683594 119.398438 191.722656 119.402344 191.898438 C 119.160156 194.902344 121.660156 196.960938 123.867188 198.777344 C 124.054688 198.933594 124.238281 199.082031 124.417969 199.234375 C 124.453125 199.269531 124.496094 199.300781 124.535156 199.335938 C 124.578125 199.371094 124.621094 199.40625 124.660156 199.441406 C 124.75 199.519531 124.839844 199.59375 124.925781 199.667969 L 124.929688 199.671875 L 124.988281 199.726562 C 125.113281 199.835938 125.371094 200.0625 125.609375 200.304688 C 125.667969 200.355469 125.71875 200.414062 125.769531 200.464844 L 125.78125 200.480469 C 125.921875 200.628906 126.054688 200.78125 126.167969 200.925781 C 126.199219 200.972656 126.234375 201.015625 126.265625 201.058594 L 126.265625 201.0625 L 126.332031 201.144531 L 126.332031 201.148438 L 126.359375 201.191406 C 126.519531 201.441406 126.636719 201.691406 126.699219 201.9375 C 126.820312 202.714844 126.675781 203.328125 126.304688 203.71875 C 126.421875 203.804688 126.570312 203.875 126.753906 203.914062 C 126.851562 203.933594 127 203.996094 127.167969 204.070312 C 127.335938 204.148438 127.519531 204.242188 127.707031 204.351562 L 127.75 204.3125 C 128.351562 203.8125 128.75 203.128906 128.847656 202.351562 C 128.964844 201.449219 128.660156 200.535156 127.996094 199.695312 C 127.964844 199.65625 127.929688 199.613281 127.894531 199.574219 " fill-opacity="1" fill-rule="nonzero"/><path fill="#121e2e" d="M 125.757812 212.136719 L 125.726562 212.113281 C 125.6875 212.085938 125.648438 212.058594 125.609375 212.027344 C 125.292969 211.804688 124.988281 211.566406 124.675781 211.230469 C 124.484375 211.359375 124.296875 211.476562 124.105469 211.585938 C 123.988281 211.652344 123.875 211.722656 123.75 211.789062 C 123.453125 211.945312 123.289062 212.132812 123.253906 212.34375 C 123.246094 212.414062 123.25 212.488281 123.265625 212.5625 C 123.277344 212.605469 123.292969 212.644531 123.308594 212.679688 L 123.328125 212.714844 L 123.378906 212.800781 L 123.394531 212.820312 C 123.519531 212.976562 123.691406 213.085938 123.828125 213.085938 L 123.867188 213.078125 L 123.875 213.078125 L 123.949219 213.046875 L 123.996094 213.027344 C 124.144531 212.976562 124.332031 212.898438 124.535156 212.804688 C 124.875 212.648438 125.257812 212.445312 125.609375 212.230469 C 125.660156 212.195312 125.710938 212.167969 125.757812 212.136719 " fill-opacity="1" fill-rule="nonzero"/><path fill="#121e2e" d="M 121.929688 153.640625 C 122.464844 153.480469 122.964844 153.574219 123.054688 153.859375 C 123.140625 154.144531 122.78125 154.507812 122.25 154.667969 C 121.71875 154.835938 121.125 154.453125 121.125 154.453125 C 121.125 154.453125 121.398438 153.804688 121.929688 153.640625 Z M 133.507812 167.511719 C 133.441406 167.292969 133.371094 167.078125 133.289062 166.871094 C 133.171875 166.59375 133.03125 166.335938 132.871094 166.085938 C 132.035156 164.8125 130.695312 164.144531 128.886719 164.09375 L 128.785156 164.089844 C 128.703125 164.085938 128.628906 164.085938 128.546875 164.085938 C 128.324219 164.082031 128.101562 164.082031 127.882812 164.082031 C 127.316406 164.078125 126.769531 164.082031 126.242188 164.085938 C 126.03125 164.085938 125.828125 164.089844 125.621094 164.089844 C 124.824219 164.09375 124.070312 164.089844 123.371094 164.0625 C 123.171875 164.050781 122.976562 164.042969 122.785156 164.027344 C 122.652344 164.019531 122.523438 164.007812 122.394531 163.996094 C 121.910156 163.949219 121.457031 163.886719 121.042969 163.789062 L 120.992188 163.765625 L 120.988281 163.78125 C 119.5625 163.4375 118.53125 162.730469 117.949219 161.269531 C 117.644531 160.1875 117.527344 159.253906 117.605469 158.460938 C 117.613281 158.421875 117.632812 158.378906 117.671875 158.351562 C 117.710938 158.324219 117.757812 158.316406 117.804688 158.324219 C 119.140625 158.628906 120.371094 158.609375 121.425781 158.28125 C 123.070312 157.777344 124.5 156.964844 125.464844 155.988281 C 125.523438 155.933594 125.574219 155.875 125.625 155.816406 C 126.441406 154.925781 126.769531 154.011719 126.527344 153.234375 C 126.390625 152.792969 126.074219 152.421875 125.625 152.128906 C 124.929688 151.679688 123.898438 151.425781 122.667969 151.425781 C 121.652344 151.429688 120.542969 151.605469 119.46875 151.941406 C 118.03125 152.5 116.34375 153.589844 114.816406 157.355469 C 114.121094 160.140625 114.589844 162.871094 116.121094 164.828125 C 116.847656 165.757812 117.789062 166.480469 118.917969 167 L 118.945312 167.003906 L 118.964844 167.015625 C 119.136719 167.089844 119.316406 167.160156 119.496094 167.230469 C 119.546875 167.25 119.589844 167.273438 119.640625 167.289062 C 119.691406 167.308594 119.746094 167.320312 119.796875 167.335938 C 119.980469 167.402344 120.164062 167.460938 120.355469 167.511719 L 120.425781 167.535156 C 120.65625 167.597656 120.902344 167.652344 121.148438 167.699219 L 121.195312 167.714844 C 121.449219 167.761719 121.714844 167.804688 121.984375 167.835938 C 122.039062 167.84375 122.097656 167.847656 122.152344 167.855469 C 122.355469 167.875 122.5625 167.894531 122.773438 167.90625 C 122.867188 167.917969 122.96875 167.921875 123.070312 167.921875 C 123.25 167.933594 123.425781 167.9375 123.609375 167.941406 C 123.710938 167.941406 123.816406 167.941406 123.925781 167.941406 C 124.050781 167.9375 124.179688 167.933594 124.308594 167.921875 C 124.378906 167.921875 124.449219 167.921875 124.523438 167.921875 C 124.609375 167.921875 124.703125 167.917969 124.792969 167.914062 C 124.890625 167.902344 124.992188 167.890625 125.089844 167.886719 C 125.265625 167.871094 125.441406 167.859375 125.621094 167.84375 L 125.691406 167.835938 L 125.734375 167.828125 L 125.8125 167.816406 C 126.035156 167.785156 126.570312 167.71875 127.199219 167.734375 C 127.394531 167.738281 127.605469 167.75 127.8125 167.769531 C 128.054688 167.796875 128.296875 167.84375 128.53125 167.902344 C 128.726562 167.957031 128.914062 168.023438 129.085938 168.105469 C 129.203125 168.160156 129.308594 168.21875 129.402344 168.285156 L 129.507812 168.355469 L 129.589844 168.429688 C 129.632812 168.460938 129.671875 168.503906 129.710938 168.535156 C 129.746094 168.578125 129.785156 168.617188 129.816406 168.65625 C 129.871094 168.71875 129.914062 168.785156 129.953125 168.851562 L 130.011719 168.945312 C 130.054688 169.027344 130.09375 169.117188 130.121094 169.210938 L 130.140625 169.277344 C 130.167969 169.386719 130.191406 169.492188 130.203125 169.609375 C 130.230469 169.894531 130.164062 170.132812 130 170.359375 C 129.929688 170.464844 129.832031 170.566406 129.714844 170.671875 C 129.414062 170.953125 128.972656 171.242188 128.378906 171.636719 C 128.296875 171.6875 128.210938 171.746094 128.132812 171.800781 C 128.007812 171.882812 127.875 171.96875 127.738281 172.058594 C 127.671875 172.101562 127.605469 172.148438 127.539062 172.195312 C 127.457031 172.25 127.378906 172.300781 127.289062 172.363281 C 127.328125 172.371094 127.375 172.390625 127.414062 172.410156 C 127.511719 172.449219 127.617188 172.496094 127.730469 172.542969 C 128.460938 172.863281 129.449219 173.339844 130.28125 173.765625 C 130.789062 174.023438 131.234375 174.265625 131.523438 174.4375 C 131.601562 174.484375 131.667969 174.527344 131.71875 174.5625 C 131.769531 174.515625 131.824219 174.480469 131.890625 174.433594 C 132.015625 174.34375 132.164062 174.238281 132.324219 174.09375 C 132.574219 173.867188 132.863281 173.5625 133.136719 173.089844 C 133.75 171.625 134.011719 169.582031 133.589844 167.820312 C 133.574219 167.769531 133.566406 167.71875 133.554688 167.667969 C 133.539062 167.617188 133.523438 167.5625 133.507812 167.511719 " fill-opacity="1" fill-rule="nonzero"/><path fill="#121e2e" d="M 116.082031 139.375 C 109.3125 134.988281 103.53125 128.386719 91.914062 134.851562 C 75.308594 144.105469 67.738281 146.457031 64.675781 146.605469 C 61.609375 146.746094 60.605469 149.316406 65.285156 153.695312 C 65.777344 154.152344 66.558594 154.707031 67.527344 155.300781 L 93.1875 140.355469 C 93.59375 140.117188 94.117188 140.253906 94.355469 140.664062 C 94.59375 141.070312 94.457031 141.597656 94.046875 141.839844 L 69.234375 156.289062 C 70.140625 156.792969 71.128906 157.308594 72.203125 157.835938 L 97.984375 142.816406 C 98.394531 142.578125 98.917969 142.714844 99.160156 143.121094 C 99.394531 143.53125 99.257812 144.058594 98.847656 144.296875 L 74.078125 158.726562 C 75.109375 159.207031 76.183594 159.675781 77.273438 160.140625 L 102.789062 145.273438 C 103.195312 145.035156 103.722656 145.175781 103.960938 145.585938 C 104.199219 145.992188 104.0625 146.519531 103.652344 146.757812 L 79.269531 160.964844 C 80.417969 161.421875 81.558594 161.855469 82.675781 162.253906 L 107.589844 147.738281 C 108 147.5 108.523438 147.636719 108.765625 148.046875 C 109.003906 148.453125 108.863281 148.980469 108.453125 149.21875 L 84.824219 162.984375 C 86.183594 163.429688 87.457031 163.789062 88.605469 164.058594 L 112.394531 150.199219 C 112.804688 149.957031 113.328125 150.097656 113.566406 150.507812 C 113.804688 150.914062 113.664062 151.441406 113.257812 151.679688 L 91.242188 164.503906 C 91.523438 164.527344 91.808594 164.554688 92.046875 164.554688 C 98.09375 164.476562 104.464844 162.027344 110.273438 158.230469 C 115.226562 154.988281 116.601562 149.332031 126.488281 150.472656 L 126.699219 144.144531 C 124.828125 144.441406 121.574219 142.929688 116.082031 139.375 " fill-opacity="1" fill-rule="nonzero"/><path fill="#121e2e" d="M 137.625 139.375 C 144.394531 134.988281 150.175781 128.386719 161.789062 134.851562 C 178.398438 144.105469 185.964844 146.457031 189.027344 146.605469 C 192.097656 146.746094 193.101562 149.316406 188.421875 153.695312 C 187.929688 154.152344 187.144531 154.707031 186.179688 155.300781 L 160.519531 140.355469 C 160.113281 140.117188 159.589844 140.253906 159.351562 140.664062 C 159.113281 141.070312 159.25 141.597656 159.660156 141.839844 L 184.472656 156.289062 C 183.566406 156.792969 182.578125 157.308594 181.5 157.835938 L 155.71875 142.816406 C 155.3125 142.578125 154.785156 142.714844 154.546875 143.121094 C 154.3125 143.53125 154.449219 144.058594 154.855469 144.296875 L 179.628906 158.726562 C 178.597656 159.207031 177.523438 159.675781 176.433594 160.140625 L 150.921875 145.273438 C 150.511719 145.035156 149.984375 145.175781 149.746094 145.585938 C 149.507812 145.992188 149.644531 146.519531 150.054688 146.757812 L 174.4375 160.964844 C 173.289062 161.421875 172.148438 161.855469 171.03125 162.253906 L 146.113281 147.738281 C 145.703125 147.5 145.183594 147.636719 144.941406 148.046875 C 144.703125 148.453125 144.839844 148.980469 145.25 149.21875 L 168.882812 162.984375 C 167.519531 163.429688 166.25 163.789062 165.097656 164.058594 L 141.3125 150.199219 C 140.902344 149.957031 140.378906 150.097656 140.136719 150.507812 C 139.902344 150.914062 140.042969 151.441406 140.449219 151.679688 L 162.464844 164.503906 C 162.183594 164.527344 161.898438 164.554688 161.660156 164.554688 C 155.613281 164.476562 149.242188 162.027344 143.429688 158.230469 C 138.480469 154.988281 137.105469 149.332031 127.21875 150.472656 L 127.007812 144.144531 C 128.878906 144.441406 132.132812 142.929688 137.625 139.375 " fill-opacity="1" fill-rule="nonzero"/><g clip-path="url(#0c5647e335)"><g clip-path="url(#d0feafe09c)"><g clip-path="url(#a5b4337844)"><g clip-path="url(#0d574b181b)"><path fill="#000000" d="M 83.964844 169.507812 C 83.828125 170.429688 83.714844 171.355469 83.628906 172.285156 C 83.539062 173.210938 83.480469 174.140625 83.445312 175.074219 C 83.410156 176.007812 83.402344 176.9375 83.421875 177.871094 C 83.4375 178.804688 83.484375 179.734375 83.554688 180.664062 C 83.625 181.597656 83.71875 182.523438 83.84375 183.449219 C 83.964844 184.375 84.113281 185.296875 84.289062 186.214844 C 84.464844 187.132812 84.664062 188.042969 84.890625 188.949219 C 85.117188 189.855469 85.367188 190.757812 85.644531 191.648438 C 85.917969 192.542969 86.222656 193.425781 86.546875 194.300781 C 86.875 195.179688 87.222656 196.042969 87.597656 196.902344 C 87.972656 197.757812 88.371094 198.605469 88.792969 199.4375 C 89.21875 200.273438 89.664062 201.09375 90.132812 201.90625 C 90.597656 202.714844 91.089844 203.511719 91.605469 204.296875 C 92.117188 205.078125 92.652344 205.847656 93.207031 206.597656 C 93.765625 207.351562 94.339844 208.089844 94.9375 208.808594 C 95.535156 209.53125 96.15625 210.234375 96.792969 210.921875 C 97.429688 211.609375 98.085938 212.277344 98.757812 212.929688 C 99.433594 213.578125 100.125 214.210938 100.835938 214.820312 C 101.546875 215.433594 102.273438 216.023438 103.015625 216.59375 C 103.757812 217.167969 104.515625 217.71875 105.289062 218.246094 C 106.066406 218.773438 106.851562 219.28125 107.65625 219.765625 C 108.457031 220.253906 109.273438 220.714844 110.101562 221.152344 C 110.925781 221.59375 111.765625 222.011719 112.617188 222.402344 C 113.46875 222.796875 114.332031 223.164062 115.203125 223.507812 C 116.074219 223.855469 116.953125 224.175781 117.84375 224.46875 C 118.734375 224.765625 119.628906 225.035156 120.535156 225.28125 C 121.4375 225.527344 122.347656 225.746094 123.265625 225.941406 C 124.179688 226.136719 125.101562 226.304688 126.027344 226.449219 C 126.953125 226.589844 127.882812 226.707031 128.8125 226.800781 C 129.746094 226.890625 130.679688 226.957031 131.613281 226.992188 C 132.550781 227.03125 133.484375 227.046875 134.421875 227.03125 C 135.355469 227.019531 136.292969 226.980469 137.222656 226.914062 C 142.289062 226.574219 147.1875 225.496094 151.921875 223.691406 C 156.65625 221.882812 161.011719 219.421875 165 216.304688 C 164.257812 216.902344 163.503906 217.480469 162.730469 218.035156 C 161.957031 218.59375 161.167969 219.125 160.367188 219.636719 C 159.5625 220.148438 158.746094 220.640625 157.914062 221.105469 C 157.085938 221.570312 156.242188 222.011719 155.386719 222.433594 C 154.53125 222.851562 153.664062 223.246094 152.785156 223.613281 C 151.90625 223.984375 151.019531 224.332031 150.121094 224.652344 C 149.222656 224.972656 148.316406 225.265625 147.402344 225.535156 C 146.488281 225.804688 145.566406 226.050781 144.636719 226.269531 C 143.707031 226.484375 142.773438 226.679688 141.832031 226.84375 C 140.894531 227.011719 139.949219 227.148438 139 227.261719 C 138.054688 227.375 137.101562 227.460938 136.148438 227.523438 C 135.195312 227.582031 134.242188 227.617188 133.285156 227.621094 C 132.332031 227.628906 131.375 227.609375 130.421875 227.5625 C 129.46875 227.515625 128.515625 227.441406 127.5625 227.34375 C 126.613281 227.242188 125.667969 227.117188 124.722656 226.960938 C 123.777344 226.808594 122.839844 226.632812 121.90625 226.425781 C 120.972656 226.21875 120.042969 225.988281 119.121094 225.734375 C 118.199219 225.476562 117.285156 225.191406 116.378906 224.886719 C 115.476562 224.578125 114.578125 224.246094 113.691406 223.886719 C 112.804688 223.527344 111.925781 223.144531 111.058594 222.738281 C 110.195312 222.332031 109.339844 221.902344 108.496094 221.449219 C 107.65625 220.992188 106.828125 220.515625 106.011719 220.015625 C 105.195312 219.515625 104.394531 218.992188 103.609375 218.445312 C 102.820312 217.902344 102.050781 217.335938 101.296875 216.746094 C 100.539062 216.160156 99.804688 215.550781 99.082031 214.921875 C 98.359375 214.292969 97.660156 213.644531 96.972656 212.976562 C 96.289062 212.308594 95.625 211.621094 94.976562 210.917969 C 94.332031 210.210938 93.707031 209.488281 93.097656 208.75 C 92.492188 208.007812 91.910156 207.253906 91.34375 206.480469 C 90.78125 205.710938 90.242188 204.921875 89.722656 204.121094 C 89.203125 203.316406 88.707031 202.5 88.230469 201.671875 C 87.757812 200.84375 87.308594 200 86.882812 199.144531 C 84.574219 194.507812 82.996094 189.640625 82.144531 184.539062 C 81.296875 179.441406 81.214844 174.332031 81.898438 169.21875 C 81.917969 169.078125 81.964844 168.945312 82.035156 168.824219 C 82.105469 168.703125 82.195312 168.601562 82.308594 168.515625 C 82.421875 168.429688 82.546875 168.371094 82.683594 168.335938 C 82.820312 168.300781 82.957031 168.292969 83.097656 168.3125 C 83.238281 168.332031 83.371094 168.378906 83.492188 168.449219 C 83.613281 168.519531 83.71875 168.613281 83.804688 168.726562 C 83.890625 168.835938 83.953125 168.960938 83.988281 169.097656 C 84.023438 169.234375 84.03125 169.371094 84.015625 169.511719 Z M 83.964844 169.507812 " fill-opacity="1" fill-rule="nonzero"/></g></g></g></g><g clip-path="url(#551aafe838)"><g clip-path="url(#2c1625cebf)"><g clip-path="url(#c74b002536)"><g clip-path="url(#b1b989303c)"><path fill="#000000" d="M 92.582031 172.867188 C 92.453125 173.691406 92.347656 174.515625 92.265625 175.347656 C 92.183594 176.175781 92.125 177.007812 92.089844 177.839844 C 92.054688 178.671875 92.042969 179.503906 92.050781 180.335938 C 92.0625 181.167969 92.097656 182 92.152344 182.828125 C 92.210938 183.660156 92.292969 184.488281 92.394531 185.3125 C 92.5 186.136719 92.625 186.960938 92.773438 187.777344 C 92.925781 188.59375 93.097656 189.40625 93.292969 190.214844 C 93.488281 191.023438 93.703125 191.824219 93.945312 192.621094 C 94.183594 193.414062 94.445312 194.203125 94.730469 194.984375 C 95.015625 195.765625 95.320312 196.535156 95.648438 197.296875 C 95.972656 198.0625 96.324219 198.8125 96.691406 199.554688 C 97.0625 200.300781 97.453125 201.03125 97.863281 201.75 C 98.273438 202.472656 98.703125 203.179688 99.15625 203.875 C 99.605469 204.570312 100.074219 205.253906 100.5625 205.921875 C 101.050781 206.59375 101.558594 207.246094 102.085938 207.886719 C 102.609375 208.527344 103.152344 209.152344 103.714844 209.761719 C 104.273438 210.371094 104.851562 210.964844 105.445312 211.542969 C 106.039062 212.117188 106.648438 212.675781 107.277344 213.21875 C 107.902344 213.761719 108.542969 214.285156 109.195312 214.792969 C 109.851562 215.296875 110.519531 215.785156 111.203125 216.25 C 111.886719 216.71875 112.582031 217.167969 113.289062 217.597656 C 113.996094 218.023438 114.714844 218.433594 115.449219 218.820312 C 116.179688 219.207031 116.921875 219.574219 117.671875 219.921875 C 118.425781 220.265625 119.183594 220.589844 119.957031 220.894531 C 120.726562 221.195312 121.503906 221.476562 122.289062 221.738281 C 123.078125 221.996094 123.871094 222.230469 124.667969 222.445312 C 125.46875 222.660156 126.273438 222.851562 127.085938 223.019531 C 127.894531 223.1875 128.710938 223.332031 129.53125 223.457031 C 130.351562 223.578125 131.171875 223.679688 131.996094 223.753906 C 132.824219 223.832031 133.648438 223.882812 134.476562 223.914062 C 135.304688 223.941406 136.136719 223.949219 136.964844 223.929688 C 137.792969 223.914062 138.621094 223.875 139.449219 223.808594 C 143.9375 223.476562 148.285156 222.488281 152.488281 220.851562 C 156.691406 219.210938 160.570312 216.988281 164.117188 214.183594 C 163.457031 214.722656 162.785156 215.242188 162.097656 215.742188 C 161.410156 216.242188 160.707031 216.722656 159.992188 217.1875 C 159.28125 217.648438 158.554688 218.089844 157.816406 218.507812 C 157.078125 218.929688 156.328125 219.328125 155.566406 219.707031 C 154.804688 220.085938 154.035156 220.441406 153.253906 220.777344 C 152.476562 221.113281 151.6875 221.425781 150.886719 221.71875 C 150.089844 222.007812 149.285156 222.277344 148.472656 222.523438 C 147.664062 222.769531 146.84375 222.992188 146.019531 223.191406 C 145.195312 223.390625 144.367188 223.570312 143.53125 223.722656 C 142.699219 223.875 141.863281 224.003906 141.023438 224.109375 C 140.179688 224.21875 139.339844 224.300781 138.492188 224.359375 C 137.648438 224.417969 136.800781 224.453125 135.957031 224.464844 C 135.109375 224.476562 134.261719 224.460938 133.417969 224.425781 C 132.574219 224.390625 131.730469 224.328125 130.886719 224.246094 C 130.046875 224.164062 129.207031 224.054688 128.371094 223.921875 C 127.535156 223.792969 126.703125 223.636719 125.878906 223.460938 C 125.050781 223.28125 124.230469 223.082031 123.414062 222.855469 C 122.601562 222.632812 121.792969 222.386719 120.992188 222.117188 C 120.191406 221.847656 119.398438 221.554688 118.613281 221.238281 C 117.832031 220.925781 117.054688 220.589844 116.289062 220.230469 C 115.523438 219.871094 114.769531 219.492188 114.027344 219.089844 C 113.28125 218.691406 112.550781 218.269531 111.832031 217.828125 C 111.113281 217.386719 110.40625 216.921875 109.710938 216.441406 C 109.015625 215.957031 108.335938 215.457031 107.671875 214.9375 C 107.007812 214.414062 106.355469 213.875 105.722656 213.320312 C 105.085938 212.761719 104.464844 212.1875 103.863281 211.59375 C 103.261719 211 102.675781 210.394531 102.105469 209.765625 C 101.539062 209.140625 100.988281 208.5 100.453125 207.84375 C 99.921875 207.1875 99.40625 206.515625 98.914062 205.828125 C 98.417969 205.140625 97.941406 204.441406 97.488281 203.730469 C 97.03125 203.015625 96.597656 202.289062 96.179688 201.554688 C 95.765625 200.816406 95.371094 200.066406 95 199.304688 C 92.980469 195.179688 91.609375 190.84375 90.882812 186.292969 C 90.160156 181.746094 90.117188 177.1875 90.753906 172.617188 C 90.789062 172.359375 90.910156 172.148438 91.121094 171.992188 C 91.328125 171.832031 91.5625 171.769531 91.820312 171.804688 C 92.078125 171.839844 92.285156 171.960938 92.441406 172.167969 C 92.601562 172.375 92.660156 172.609375 92.625 172.871094 Z M 92.582031 172.867188 " fill-opacity="1" fill-rule="nonzero"/></g></g></g></g><g fill="#444243" fill-opacity="1"><g transform="translate(139.547076, 205.060578)"><g><path d="M 2.078125 0 L 1.3125 0 C 1.132812 0 1.046875 -0.09375 1.046875 -0.28125 L 1.046875 -10.15625 C 1.046875 -10.332031 1.078125 -10.457031 1.140625 -10.53125 C 1.210938 -10.613281 1.300781 -10.644531 1.40625 -10.625 C 1.507812 -10.601562 1.613281 -10.519531 1.71875 -10.375 L 5.890625 -4.625 L 10.078125 -10.375 C 10.179688 -10.519531 10.285156 -10.601562 10.390625 -10.625 C 10.492188 -10.644531 10.578125 -10.613281 10.640625 -10.53125 C 10.710938 -10.457031 10.75 -10.332031 10.75 -10.15625 L 10.75 -0.28125 C 10.75 -0.09375 10.660156 0 10.484375 0 L 9.71875 0 C 9.539062 0 9.453125 -0.09375 9.453125 -0.28125 L 9.453125 -7.34375 L 6.09375 -2.765625 C 6.03125 -2.679688 5.960938 -2.640625 5.890625 -2.640625 C 5.816406 -2.640625 5.753906 -2.679688 5.703125 -2.765625 L 2.34375 -7.34375 L 2.34375 -0.28125 C 2.34375 -0.09375 2.253906 0 2.078125 0 Z M 2.078125 0 "/></g></g></g><g fill="#444243" fill-opacity="1"><g transform="translate(151.332853, 205.060578)"><g><path d="M 3.953125 -6.859375 C 4.421875 -6.859375 4.851562 -6.773438 5.25 -6.609375 C 5.65625 -6.441406 6.003906 -6.207031 6.296875 -5.90625 C 6.597656 -5.601562 6.832031 -5.242188 7 -4.828125 C 7.175781 -4.410156 7.265625 -3.957031 7.265625 -3.46875 C 7.265625 -3.351562 7.234375 -3.28125 7.171875 -3.25 C 7.117188 -3.21875 7.054688 -3.203125 6.984375 -3.203125 L 1.84375 -3.203125 C 1.863281 -2.753906 1.972656 -2.363281 2.171875 -2.03125 C 2.367188 -1.707031 2.628906 -1.457031 2.953125 -1.28125 C 3.273438 -1.101562 3.625 -1.015625 4 -1.015625 C 4.363281 -1.015625 4.71875 -1.101562 5.0625 -1.28125 C 5.40625 -1.457031 5.691406 -1.707031 5.921875 -2.03125 C 5.972656 -2.101562 6.023438 -2.144531 6.078125 -2.15625 C 6.128906 -2.175781 6.191406 -2.164062 6.265625 -2.125 L 6.75 -1.765625 C 6.894531 -1.679688 6.914062 -1.5625 6.8125 -1.40625 C 6.601562 -1.082031 6.347656 -0.800781 6.046875 -0.5625 C 5.753906 -0.332031 5.429688 -0.15625 5.078125 -0.03125 C 4.722656 0.0820312 4.359375 0.140625 3.984375 0.140625 C 3.515625 0.140625 3.078125 0.0546875 2.671875 -0.109375 C 2.265625 -0.273438 1.90625 -0.507812 1.59375 -0.8125 C 1.289062 -1.125 1.050781 -1.492188 0.875 -1.921875 C 0.695312 -2.347656 0.609375 -2.828125 0.609375 -3.359375 C 0.609375 -3.878906 0.691406 -4.351562 0.859375 -4.78125 C 1.035156 -5.207031 1.273438 -5.578125 1.578125 -5.890625 C 1.890625 -6.203125 2.242188 -6.441406 2.640625 -6.609375 C 3.046875 -6.773438 3.484375 -6.859375 3.953125 -6.859375 Z M 3.96875 -5.734375 C 3.675781 -5.734375 3.390625 -5.671875 3.109375 -5.546875 C 2.835938 -5.429688 2.597656 -5.257812 2.390625 -5.03125 C 2.191406 -4.8125 2.046875 -4.535156 1.953125 -4.203125 L 5.921875 -4.203125 C 5.828125 -4.535156 5.679688 -4.8125 5.484375 -5.03125 C 5.296875 -5.257812 5.066406 -5.429688 4.796875 -5.546875 C 4.535156 -5.671875 4.257812 -5.734375 3.96875 -5.734375 Z M 3.96875 -5.734375 "/></g></g></g><g fill="#444243" fill-opacity="1"><g transform="translate(159.158552, 205.060578)"><g><path d="M 7.703125 -10.09375 L 7.71875 -0.28125 C 7.71875 -0.09375 7.625 0 7.4375 0 L 7.0625 0 C 6.882812 0 6.785156 -0.0820312 6.765625 -0.25 L 6.609375 -1 C 6.296875 -0.632812 5.914062 -0.351562 5.46875 -0.15625 C 5.019531 0.0390625 4.550781 0.140625 4.0625 0.140625 C 3.582031 0.140625 3.128906 0.0507812 2.703125 -0.125 C 2.285156 -0.3125 1.914062 -0.5625 1.59375 -0.875 C 1.28125 -1.195312 1.035156 -1.570312 0.859375 -2 C 0.679688 -2.425781 0.59375 -2.878906 0.59375 -3.359375 C 0.59375 -3.835938 0.679688 -4.285156 0.859375 -4.703125 C 1.035156 -5.128906 1.28125 -5.503906 1.59375 -5.828125 C 1.914062 -6.148438 2.285156 -6.398438 2.703125 -6.578125 C 3.128906 -6.765625 3.582031 -6.859375 4.0625 -6.859375 C 4.519531 -6.859375 4.957031 -6.769531 5.375 -6.59375 C 5.800781 -6.425781 6.171875 -6.1875 6.484375 -5.875 L 6.46875 -10.09375 C 6.46875 -10.28125 6.5625 -10.375 6.75 -10.375 L 7.421875 -10.375 C 7.609375 -10.375 7.703125 -10.28125 7.703125 -10.09375 Z M 4.15625 -1.015625 C 4.476562 -1.015625 4.78125 -1.078125 5.0625 -1.203125 C 5.34375 -1.328125 5.585938 -1.492188 5.796875 -1.703125 C 6.015625 -1.921875 6.1875 -2.171875 6.3125 -2.453125 C 6.4375 -2.734375 6.5 -3.035156 6.5 -3.359375 C 6.5 -3.671875 6.4375 -3.96875 6.3125 -4.25 C 6.1875 -4.539062 6.015625 -4.789062 5.796875 -5 C 5.585938 -5.21875 5.34375 -5.382812 5.0625 -5.5 C 4.78125 -5.625 4.476562 -5.6875 4.15625 -5.6875 C 3.84375 -5.6875 3.539062 -5.625 3.25 -5.5 C 2.96875 -5.382812 2.71875 -5.21875 2.5 -5 C 2.289062 -4.789062 2.125 -4.539062 2 -4.25 C 1.882812 -3.96875 1.828125 -3.671875 1.828125 -3.359375 C 1.828125 -3.035156 1.882812 -2.734375 2 -2.453125 C 2.125 -2.171875 2.289062 -1.921875 2.5 -1.703125 C 2.71875 -1.492188 2.96875 -1.328125 3.25 -1.203125 C 3.539062 -1.078125 3.84375 -1.015625 4.15625 -1.015625 Z M 4.15625 -1.015625 "/></g></g></g><g fill="#444243" fill-opacity="1"><g transform="translate(167.773572, 205.060578)"><g><path d="M 1.515625 -7.59375 C 1.265625 -7.59375 1.054688 -7.671875 0.890625 -7.828125 C 0.734375 -7.992188 0.65625 -8.203125 0.65625 -8.453125 C 0.65625 -8.691406 0.734375 -8.894531 0.890625 -9.0625 C 1.054688 -9.226562 1.265625 -9.3125 1.515625 -9.3125 C 1.765625 -9.3125 1.96875 -9.226562 2.125 -9.0625 C 2.289062 -8.894531 2.375 -8.691406 2.375 -8.453125 C 2.375 -8.203125 2.289062 -7.992188 2.125 -7.828125 C 1.96875 -7.671875 1.765625 -7.59375 1.515625 -7.59375 Z M 1.859375 0 L 1.1875 0 C 1 0 0.90625 -0.09375 0.90625 -0.28125 L 0.90625 -6.4375 C 0.90625 -6.625 1 -6.71875 1.1875 -6.71875 L 1.859375 -6.71875 C 2.046875 -6.71875 2.140625 -6.625 2.140625 -6.4375 L 2.140625 -0.28125 C 2.140625 -0.09375 2.046875 0 1.859375 0 Z M 1.859375 0 "/></g></g></g><g fill="#444243" fill-opacity="1"><g transform="translate(170.816155, 205.060578)"><g><path d="M 4.140625 0.140625 C 3.648438 0.140625 3.1875 0.0546875 2.75 -0.109375 C 2.320312 -0.273438 1.945312 -0.515625 1.625 -0.828125 C 1.300781 -1.140625 1.046875 -1.507812 0.859375 -1.9375 C 0.679688 -2.363281 0.59375 -2.835938 0.59375 -3.359375 C 0.59375 -3.867188 0.679688 -4.335938 0.859375 -4.765625 C 1.046875 -5.203125 1.300781 -5.578125 1.625 -5.890625 C 1.945312 -6.203125 2.320312 -6.441406 2.75 -6.609375 C 3.1875 -6.773438 3.648438 -6.859375 4.140625 -6.859375 C 4.554688 -6.859375 4.953125 -6.789062 5.328125 -6.65625 C 5.703125 -6.519531 6.039062 -6.328125 6.34375 -6.078125 C 6.65625 -5.835938 6.914062 -5.546875 7.125 -5.203125 C 7.164062 -5.128906 7.175781 -5.054688 7.15625 -4.984375 C 7.132812 -4.921875 7.085938 -4.867188 7.015625 -4.828125 L 6.484375 -4.484375 C 6.335938 -4.410156 6.210938 -4.445312 6.109375 -4.59375 C 5.898438 -4.925781 5.625 -5.191406 5.28125 -5.390625 C 4.9375 -5.585938 4.554688 -5.6875 4.140625 -5.6875 C 3.816406 -5.6875 3.515625 -5.628906 3.234375 -5.515625 C 2.953125 -5.410156 2.703125 -5.253906 2.484375 -5.046875 C 2.273438 -4.835938 2.109375 -4.585938 1.984375 -4.296875 C 1.867188 -4.015625 1.8125 -3.703125 1.8125 -3.359375 C 1.8125 -3.003906 1.867188 -2.679688 1.984375 -2.390625 C 2.109375 -2.109375 2.273438 -1.863281 2.484375 -1.65625 C 2.703125 -1.457031 2.953125 -1.300781 3.234375 -1.1875 C 3.515625 -1.070312 3.816406 -1.015625 4.140625 -1.015625 C 4.535156 -1.015625 4.910156 -1.113281 5.265625 -1.3125 C 5.617188 -1.507812 5.894531 -1.773438 6.09375 -2.109375 C 6.207031 -2.265625 6.332031 -2.304688 6.46875 -2.234375 L 7.015625 -1.859375 C 7.171875 -1.765625 7.203125 -1.644531 7.109375 -1.5 C 6.910156 -1.164062 6.65625 -0.875 6.34375 -0.625 C 6.03125 -0.375 5.6875 -0.179688 5.3125 -0.046875 C 4.9375 0.078125 4.546875 0.140625 4.140625 0.140625 Z M 4.140625 0.140625 "/></g></g></g><g fill="#444243" fill-opacity="1"><g transform="translate(178.527172, 205.060578)"><g><path d="M 3.4375 -6.859375 C 3.8125 -6.859375 4.160156 -6.8125 4.484375 -6.71875 C 4.804688 -6.632812 5.085938 -6.5 5.328125 -6.3125 C 5.578125 -6.125 5.769531 -5.878906 5.90625 -5.578125 C 6.039062 -5.285156 6.109375 -4.929688 6.109375 -4.515625 L 6.109375 -0.28125 C 6.109375 -0.09375 6.015625 0 5.828125 0 L 5.453125 0 C 5.273438 0 5.171875 -0.0820312 5.140625 -0.25 L 5.03125 -0.890625 C 4.832031 -0.628906 4.609375 -0.421875 4.359375 -0.265625 C 4.117188 -0.117188 3.863281 -0.015625 3.59375 0.046875 C 3.320312 0.109375 3.054688 0.140625 2.796875 0.140625 C 2.503906 0.140625 2.222656 0.0976562 1.953125 0.015625 C 1.691406 -0.0546875 1.457031 -0.171875 1.25 -0.328125 C 1.039062 -0.492188 0.878906 -0.703125 0.765625 -0.953125 C 0.648438 -1.203125 0.59375 -1.5 0.59375 -1.84375 C 0.59375 -2.34375 0.707031 -2.753906 0.9375 -3.078125 C 1.175781 -3.410156 1.503906 -3.65625 1.921875 -3.8125 C 2.335938 -3.976562 2.804688 -4.0625 3.328125 -4.0625 C 3.578125 -4.0625 3.832031 -4.046875 4.09375 -4.015625 C 4.351562 -3.984375 4.613281 -3.9375 4.875 -3.875 L 4.875 -4.421875 C 4.875 -4.753906 4.804688 -5.019531 4.671875 -5.21875 C 4.535156 -5.414062 4.347656 -5.554688 4.109375 -5.640625 C 3.878906 -5.734375 3.617188 -5.78125 3.328125 -5.78125 C 3.046875 -5.78125 2.75 -5.75 2.4375 -5.6875 C 2.132812 -5.625 1.828125 -5.539062 1.515625 -5.4375 C 1.335938 -5.375 1.222656 -5.425781 1.171875 -5.59375 L 1.015625 -6.109375 C 0.960938 -6.273438 1.019531 -6.394531 1.1875 -6.46875 C 1.5625 -6.59375 1.941406 -6.6875 2.328125 -6.75 C 2.710938 -6.820312 3.082031 -6.859375 3.4375 -6.859375 Z M 3 -0.828125 C 3.195312 -0.828125 3.40625 -0.859375 3.625 -0.921875 C 3.84375 -0.992188 4.046875 -1.101562 4.234375 -1.25 C 4.429688 -1.394531 4.585938 -1.585938 4.703125 -1.828125 C 4.816406 -2.066406 4.875 -2.351562 4.875 -2.6875 L 4.875 -2.9375 C 4.644531 -2.976562 4.421875 -3.007812 4.203125 -3.03125 C 3.984375 -3.0625 3.773438 -3.078125 3.578125 -3.078125 C 3.242188 -3.078125 2.941406 -3.035156 2.671875 -2.953125 C 2.410156 -2.878906 2.203125 -2.753906 2.046875 -2.578125 C 1.890625 -2.398438 1.8125 -2.171875 1.8125 -1.890625 C 1.8125 -1.648438 1.863281 -1.453125 1.96875 -1.296875 C 2.082031 -1.140625 2.226562 -1.019531 2.40625 -0.9375 C 2.59375 -0.863281 2.789062 -0.828125 3 -0.828125 Z M 3 -0.828125 "/></g></g></g><g fill="#444243" fill-opacity="1"><g transform="translate(185.489345, 205.060578)"><g><path d="M 2.703125 0.140625 C 2.347656 0.140625 2.03125 0.0703125 1.75 -0.0625 C 1.476562 -0.207031 1.257812 -0.414062 1.09375 -0.6875 C 0.9375 -0.957031 0.859375 -1.285156 0.859375 -1.671875 L 0.859375 -10.09375 C 0.859375 -10.28125 0.953125 -10.375 1.140625 -10.375 L 1.8125 -10.375 C 2 -10.375 2.09375 -10.28125 2.09375 -10.09375 L 2.09375 -1.921875 C 2.09375 -1.585938 2.15625 -1.34375 2.28125 -1.1875 C 2.414062 -1.03125 2.597656 -0.953125 2.828125 -0.953125 C 2.890625 -0.953125 2.957031 -0.957031 3.03125 -0.96875 C 3.113281 -0.988281 3.203125 -1.015625 3.296875 -1.046875 C 3.460938 -1.109375 3.582031 -1.054688 3.65625 -0.890625 L 3.8125 -0.390625 C 3.875 -0.222656 3.820312 -0.0976562 3.65625 -0.015625 C 3.488281 0.0546875 3.320312 0.0976562 3.15625 0.109375 C 3 0.128906 2.847656 0.140625 2.703125 0.140625 Z M 2.703125 0.140625 "/></g></g></g><g fill="#444243" fill-opacity="1"><g transform="translate(189.631568, 205.060578)"><g/></g></g><g fill="#444243" fill-opacity="1"><g transform="translate(193.591647, 205.060578)"><g><path d="M 5.96875 0.21875 C 5.375 0.21875 4.804688 0.132812 4.265625 -0.03125 C 3.734375 -0.207031 3.242188 -0.453125 2.796875 -0.765625 C 2.347656 -1.078125 1.957031 -1.453125 1.625 -1.890625 C 1.289062 -2.335938 1.035156 -2.835938 0.859375 -3.390625 C 0.679688 -3.953125 0.59375 -4.550781 0.59375 -5.1875 C 0.59375 -5.820312 0.679688 -6.414062 0.859375 -6.96875 C 1.046875 -7.53125 1.300781 -8.03125 1.625 -8.46875 C 1.957031 -8.914062 2.347656 -9.296875 2.796875 -9.609375 C 3.242188 -9.921875 3.734375 -10.160156 4.265625 -10.328125 C 4.804688 -10.503906 5.367188 -10.59375 5.953125 -10.59375 C 6.703125 -10.59375 7.398438 -10.457031 8.046875 -10.1875 C 8.691406 -9.925781 9.253906 -9.566406 9.734375 -9.109375 C 9.804688 -9.035156 9.835938 -8.96875 9.828125 -8.90625 C 9.816406 -8.84375 9.78125 -8.78125 9.71875 -8.71875 L 9.125 -8.234375 C 9 -8.117188 8.867188 -8.125 8.734375 -8.25 C 8.367188 -8.582031 7.945312 -8.84375 7.46875 -9.03125 C 7 -9.21875 6.492188 -9.3125 5.953125 -9.3125 C 5.398438 -9.3125 4.878906 -9.210938 4.390625 -9.015625 C 3.898438 -8.816406 3.46875 -8.535156 3.09375 -8.171875 C 2.726562 -7.804688 2.4375 -7.367188 2.21875 -6.859375 C 2.007812 -6.359375 1.90625 -5.804688 1.90625 -5.203125 C 1.90625 -4.585938 2.007812 -4.023438 2.21875 -3.515625 C 2.4375 -3.015625 2.734375 -2.578125 3.109375 -2.203125 C 3.484375 -1.835938 3.914062 -1.554688 4.40625 -1.359375 C 4.894531 -1.160156 5.421875 -1.0625 5.984375 -1.0625 C 6.515625 -1.0625 7.015625 -1.15625 7.484375 -1.34375 C 7.960938 -1.539062 8.378906 -1.800781 8.734375 -2.125 C 8.859375 -2.238281 8.988281 -2.242188 9.125 -2.140625 L 9.71875 -1.671875 C 9.875 -1.535156 9.890625 -1.410156 9.765625 -1.296875 C 9.285156 -0.828125 8.71875 -0.457031 8.0625 -0.1875 C 7.414062 0.0820312 6.71875 0.21875 5.96875 0.21875 Z M 5.96875 0.21875 "/></g></g></g><g fill="#444243" fill-opacity="1"><g transform="translate(203.846011, 205.060578)"><g><path d="M 3.953125 -6.859375 C 4.421875 -6.859375 4.851562 -6.773438 5.25 -6.609375 C 5.65625 -6.441406 6.003906 -6.207031 6.296875 -5.90625 C 6.597656 -5.601562 6.832031 -5.242188 7 -4.828125 C 7.175781 -4.410156 7.265625 -3.957031 7.265625 -3.46875 C 7.265625 -3.351562 7.234375 -3.28125 7.171875 -3.25 C 7.117188 -3.21875 7.054688 -3.203125 6.984375 -3.203125 L 1.84375 -3.203125 C 1.863281 -2.753906 1.972656 -2.363281 2.171875 -2.03125 C 2.367188 -1.707031 2.628906 -1.457031 2.953125 -1.28125 C 3.273438 -1.101562 3.625 -1.015625 4 -1.015625 C 4.363281 -1.015625 4.71875 -1.101562 5.0625 -1.28125 C 5.40625 -1.457031 5.691406 -1.707031 5.921875 -2.03125 C 5.972656 -2.101562 6.023438 -2.144531 6.078125 -2.15625 C 6.128906 -2.175781 6.191406 -2.164062 6.265625 -2.125 L 6.75 -1.765625 C 6.894531 -1.679688 6.914062 -1.5625 6.8125 -1.40625 C 6.601562 -1.082031 6.347656 -0.800781 6.046875 -0.5625 C 5.753906 -0.332031 5.429688 -0.15625 5.078125 -0.03125 C 4.722656 0.0820312 4.359375 0.140625 3.984375 0.140625 C 3.515625 0.140625 3.078125 0.0546875 2.671875 -0.109375 C 2.265625 -0.273438 1.90625 -0.507812 1.59375 -0.8125 C 1.289062 -1.125 1.050781 -1.492188 0.875 -1.921875 C 0.695312 -2.347656 0.609375 -2.828125 0.609375 -3.359375 C 0.609375 -3.878906 0.691406 -4.351562 0.859375 -4.78125 C 1.035156 -5.207031 1.273438 -5.578125 1.578125 -5.890625 C 1.890625 -6.203125 2.242188 -6.441406 2.640625 -6.609375 C 3.046875 -6.773438 3.484375 -6.859375 3.953125 -6.859375 Z M 3.96875 -5.734375 C 3.675781 -5.734375 3.390625 -5.671875 3.109375 -5.546875 C 2.835938 -5.429688 2.597656 -5.257812 2.390625 -5.03125 C 2.191406 -4.8125 2.046875 -4.535156 1.953125 -4.203125 L 5.921875 -4.203125 C 5.828125 -4.535156 5.679688 -4.8125 5.484375 -5.03125 C 5.296875 -5.257812 5.066406 -5.429688 4.796875 -5.546875 C 4.535156 -5.671875 4.257812 -5.734375 3.96875 -5.734375 Z M 3.96875 -5.734375 "/></g></g></g><g fill="#444243" fill-opacity="1"><g transform="translate(211.671709, 205.060578)"><g><path d="M 3.984375 -6.859375 C 4.390625 -6.859375 4.742188 -6.789062 5.046875 -6.65625 C 5.347656 -6.519531 5.601562 -6.332031 5.8125 -6.09375 C 6.019531 -5.851562 6.175781 -5.570312 6.28125 -5.25 C 6.382812 -4.9375 6.4375 -4.59375 6.4375 -4.21875 L 6.4375 -0.28125 C 6.4375 -0.09375 6.347656 0 6.171875 0 L 5.484375 0 C 5.304688 0 5.21875 -0.09375 5.21875 -0.28125 L 5.21875 -4.140625 C 5.21875 -4.460938 5.15625 -4.738281 5.03125 -4.96875 C 4.90625 -5.195312 4.734375 -5.375 4.515625 -5.5 C 4.296875 -5.632812 4.039062 -5.703125 3.75 -5.703125 C 3.46875 -5.703125 3.203125 -5.640625 2.953125 -5.515625 C 2.710938 -5.390625 2.515625 -5.207031 2.359375 -4.96875 C 2.210938 -4.726562 2.140625 -4.425781 2.140625 -4.0625 L 2.140625 -0.28125 C 2.140625 -0.09375 2.046875 0 1.859375 0 L 1.1875 0 C 1 0 0.90625 -0.09375 0.90625 -0.28125 L 0.90625 -6.4375 C 0.90625 -6.625 1 -6.71875 1.1875 -6.71875 L 1.5625 -6.71875 C 1.738281 -6.71875 1.835938 -6.632812 1.859375 -6.46875 L 1.96875 -5.9375 C 2.25 -6.25 2.566406 -6.476562 2.921875 -6.625 C 3.273438 -6.78125 3.628906 -6.859375 3.984375 -6.859375 Z M 3.984375 -6.859375 "/></g></g></g><g fill="#444243" fill-opacity="1"><g transform="translate(218.944211, 205.060578)"><g><path d="M 3.140625 0.140625 C 2.785156 0.140625 2.46875 0.0703125 2.1875 -0.0625 C 1.90625 -0.207031 1.6875 -0.414062 1.53125 -0.6875 C 1.375 -0.957031 1.296875 -1.285156 1.296875 -1.671875 L 1.296875 -5.640625 L 0.71875 -5.640625 C 0.53125 -5.640625 0.4375 -5.734375 0.4375 -5.921875 L 0.4375 -6.4375 C 0.4375 -6.625 0.53125 -6.71875 0.71875 -6.71875 L 1.296875 -6.71875 L 1.296875 -8.75 C 1.296875 -8.9375 1.382812 -9.03125 1.5625 -9.03125 L 2.234375 -9.03125 C 2.421875 -9.03125 2.515625 -8.9375 2.515625 -8.75 L 2.515625 -6.71875 L 3.90625 -6.71875 C 4.082031 -6.71875 4.171875 -6.625 4.171875 -6.4375 L 4.171875 -5.921875 C 4.171875 -5.734375 4.082031 -5.640625 3.90625 -5.640625 L 2.515625 -5.640625 L 2.515625 -1.921875 C 2.515625 -1.585938 2.578125 -1.34375 2.703125 -1.1875 C 2.835938 -1.03125 3.019531 -0.953125 3.25 -0.953125 C 3.3125 -0.953125 3.382812 -0.957031 3.46875 -0.96875 C 3.550781 -0.988281 3.640625 -1.015625 3.734375 -1.046875 C 3.898438 -1.109375 4.015625 -1.054688 4.078125 -0.890625 L 4.234375 -0.390625 C 4.273438 -0.304688 4.28125 -0.226562 4.25 -0.15625 C 4.226562 -0.09375 4.175781 -0.046875 4.09375 -0.015625 C 3.914062 0.046875 3.75 0.0859375 3.59375 0.109375 C 3.4375 0.128906 3.285156 0.140625 3.140625 0.140625 Z M 3.140625 0.140625 "/></g></g></g><g fill="#444243" fill-opacity="1"><g transform="translate(223.666616, 205.060578)"><g><path d="M 3.953125 -6.859375 C 4.421875 -6.859375 4.851562 -6.773438 5.25 -6.609375 C 5.65625 -6.441406 6.003906 -6.207031 6.296875 -5.90625 C 6.597656 -5.601562 6.832031 -5.242188 7 -4.828125 C 7.175781 -4.410156 7.265625 -3.957031 7.265625 -3.46875 C 7.265625 -3.351562 7.234375 -3.28125 7.171875 -3.25 C 7.117188 -3.21875 7.054688 -3.203125 6.984375 -3.203125 L 1.84375 -3.203125 C 1.863281 -2.753906 1.972656 -2.363281 2.171875 -2.03125 C 2.367188 -1.707031 2.628906 -1.457031 2.953125 -1.28125 C 3.273438 -1.101562 3.625 -1.015625 4 -1.015625 C 4.363281 -1.015625 4.71875 -1.101562 5.0625 -1.28125 C 5.40625 -1.457031 5.691406 -1.707031 5.921875 -2.03125 C 5.972656 -2.101562 6.023438 -2.144531 6.078125 -2.15625 C 6.128906 -2.175781 6.191406 -2.164062 6.265625 -2.125 L 6.75 -1.765625 C 6.894531 -1.679688 6.914062 -1.5625 6.8125 -1.40625 C 6.601562 -1.082031 6.347656 -0.800781 6.046875 -0.5625 C 5.753906 -0.332031 5.429688 -0.15625 5.078125 -0.03125 C 4.722656 0.0820312 4.359375 0.140625 3.984375 0.140625 C 3.515625 0.140625 3.078125 0.0546875 2.671875 -0.109375 C 2.265625 -0.273438 1.90625 -0.507812 1.59375 -0.8125 C 1.289062 -1.125 1.050781 -1.492188 0.875 -1.921875 C 0.695312 -2.347656 0.609375 -2.828125 0.609375 -3.359375 C 0.609375 -3.878906 0.691406 -4.351562 0.859375 -4.78125 C 1.035156 -5.207031 1.273438 -5.578125 1.578125 -5.890625 C 1.890625 -6.203125 2.242188 -6.441406 2.640625 -6.609375 C 3.046875 -6.773438 3.484375 -6.859375 3.953125 -6.859375 Z M 3.96875 -5.734375 C 3.675781 -5.734375 3.390625 -5.671875 3.109375 -5.546875 C 2.835938 -5.429688 2.597656 -5.257812 2.390625 -5.03125 C 2.191406 -4.8125 2.046875 -4.535156 1.953125 -4.203125 L 5.921875 -4.203125 C 5.828125 -4.535156 5.679688 -4.8125 5.484375 -5.03125 C 5.296875 -5.257812 5.066406 -5.429688 4.796875 -5.546875 C 4.535156 -5.671875 4.257812 -5.734375 3.96875 -5.734375 Z M 3.96875 -5.734375 "/></g></g></g><g fill="#444243" fill-opacity="1"><g transform="translate(231.492314, 205.060578)"><g><path d="M 1.859375 0 L 1.1875 0 C 1 0 0.90625 -0.09375 0.90625 -0.28125 L 0.90625 -6.4375 C 0.90625 -6.625 1 -6.71875 1.1875 -6.71875 L 1.5625 -6.71875 C 1.726562 -6.71875 1.828125 -6.632812 1.859375 -6.46875 L 2 -5.71875 C 2.207031 -6.113281 2.46875 -6.398438 2.78125 -6.578125 C 3.09375 -6.765625 3.425781 -6.859375 3.78125 -6.859375 C 3.875 -6.859375 3.96875 -6.847656 4.0625 -6.828125 C 4.164062 -6.816406 4.269531 -6.800781 4.375 -6.78125 C 4.457031 -6.757812 4.515625 -6.71875 4.546875 -6.65625 C 4.578125 -6.59375 4.582031 -6.523438 4.5625 -6.453125 L 4.390625 -5.828125 C 4.378906 -5.742188 4.34375 -5.6875 4.28125 -5.65625 C 4.21875 -5.632812 4.144531 -5.628906 4.0625 -5.640625 C 3.988281 -5.660156 3.914062 -5.671875 3.84375 -5.671875 C 3.78125 -5.679688 3.71875 -5.6875 3.65625 -5.6875 C 3.195312 -5.6875 2.828125 -5.507812 2.546875 -5.15625 C 2.273438 -4.800781 2.140625 -4.28125 2.140625 -3.59375 L 2.140625 -0.28125 C 2.140625 -0.09375 2.046875 0 1.859375 0 Z M 1.859375 0 "/></g></g></g><g fill="#2a2623" fill-opacity="1"><g transform="translate(139.547076, 189.58654)"><g><path d="M 8.75 -19.59375 L 11.296875 -19.59375 C 11.554688 -19.59375 11.6875 -19.460938 11.6875 -19.203125 L 11.6875 -0.390625 C 11.6875 -0.128906 11.554688 0 11.296875 0 L 8.875 0 C 8.644531 0 8.492188 -0.101562 8.421875 -0.3125 L 4.671875 -10.78125 L 4.5625 -10.78125 L 4.5625 -0.390625 C 4.5625 -0.128906 4.429688 0 4.171875 0 L 1.609375 0 C 1.347656 0 1.21875 -0.128906 1.21875 -0.390625 L 1.21875 -19.203125 C 1.21875 -19.460938 1.347656 -19.59375 1.609375 -19.59375 L 4.046875 -19.59375 C 4.273438 -19.59375 4.421875 -19.488281 4.484375 -19.28125 L 8.203125 -8.875 L 8.359375 -8.875 L 8.359375 -19.203125 C 8.359375 -19.460938 8.488281 -19.59375 8.75 -19.59375 Z M 8.75 -19.59375 "/></g></g></g><g fill="#2a2623" fill-opacity="1"><g transform="translate(152.454431, 189.58654)"><g><path d="M 1.21875 -3.53125 L 1.21875 -16.078125 C 1.21875 -17.234375 1.519531 -18.109375 2.125 -18.703125 C 2.726562 -19.296875 3.601562 -19.59375 4.75 -19.59375 L 7.5 -19.59375 C 8.65625 -19.59375 9.53125 -19.296875 10.125 -18.703125 C 10.726562 -18.109375 11.03125 -17.234375 11.03125 -16.078125 L 11.03125 -3.53125 C 11.03125 -2.382812 10.726562 -1.507812 10.125 -0.90625 C 9.53125 -0.300781 8.65625 0 7.5 0 L 4.75 0 C 3.601562 0 2.726562 -0.300781 2.125 -0.90625 C 1.519531 -1.507812 1.21875 -2.382812 1.21875 -3.53125 Z M 5.46875 -3.15625 L 6.890625 -3.15625 C 7.535156 -3.15625 7.859375 -3.484375 7.859375 -4.140625 L 7.859375 -15.453125 C 7.859375 -16.109375 7.535156 -16.4375 6.890625 -16.4375 L 5.46875 -16.4375 C 4.8125 -16.4375 4.484375 -16.109375 4.484375 -15.453125 L 4.484375 -4.140625 C 4.484375 -3.484375 4.8125 -3.15625 5.46875 -3.15625 Z M 5.46875 -3.15625 "/></g></g></g><g fill="#2a2623" fill-opacity="1"><g transform="translate(164.700501, 189.58654)"><g><path d="M 9.78125 -19.59375 L 12.109375 -19.59375 C 12.484375 -19.59375 12.628906 -19.414062 12.546875 -19.0625 L 8.40625 -0.4375 C 8.34375 -0.144531 8.160156 0 7.859375 0 L 5.421875 0 C 5.140625 0 4.957031 -0.144531 4.875 -0.4375 L 0.765625 -19.0625 C 0.679688 -19.414062 0.828125 -19.59375 1.203125 -19.59375 L 3.53125 -19.59375 C 3.820312 -19.59375 4 -19.445312 4.0625 -19.15625 L 6.640625 -6.03125 L 9.234375 -19.15625 C 9.316406 -19.445312 9.5 -19.59375 9.78125 -19.59375 Z M 9.78125 -19.59375 "/></g></g></g><g fill="#2a2623" fill-opacity="1"><g transform="translate(177.999737, 189.58654)"><g><path d="M 13.03125 0 L 10.4375 0 C 10.226562 0 10.097656 -0.113281 10.046875 -0.34375 L 9.359375 -3.921875 L 5 -3.921875 L 4.34375 -0.34375 C 4.289062 -0.113281 4.15625 0 3.9375 0 L 1.328125 0 C 1.023438 0 0.914062 -0.140625 1 -0.421875 L 5.078125 -19.25 C 5.117188 -19.476562 5.253906 -19.59375 5.484375 -19.59375 L 8.890625 -19.59375 C 9.117188 -19.59375 9.257812 -19.476562 9.3125 -19.25 L 13.375 -0.421875 C 13.425781 -0.140625 13.3125 0 13.03125 0 Z M 8.75 -6.765625 L 7.171875 -15.3125 L 5.609375 -6.765625 Z M 8.75 -6.765625 "/></g></g></g><g fill="#2a2623" fill-opacity="1"><g transform="translate(192.352138, 189.58654)"><g/></g></g><g fill="#2a2623" fill-opacity="1"><g transform="translate(198.475173, 189.58654)"><g><path d="M 11.046875 -16.078125 L 11.046875 -13.421875 C 11.046875 -13.160156 10.914062 -13.03125 10.65625 -13.03125 L 8.203125 -13.03125 C 7.941406 -13.03125 7.8125 -13.160156 7.8125 -13.421875 L 7.8125 -15.390625 C 7.8125 -16.035156 7.484375 -16.359375 6.828125 -16.359375 L 5.5625 -16.359375 C 4.90625 -16.359375 4.578125 -16.035156 4.578125 -15.390625 L 4.578125 -4.21875 C 4.578125 -3.5625 4.90625 -3.234375 5.5625 -3.234375 L 6.828125 -3.234375 C 7.484375 -3.234375 7.8125 -3.5625 7.8125 -4.21875 L 7.8125 -6.171875 C 7.8125 -6.429688 7.941406 -6.5625 8.203125 -6.5625 L 10.65625 -6.5625 C 10.914062 -6.5625 11.046875 -6.429688 11.046875 -6.171875 L 11.046875 -3.53125 C 11.046875 -2.382812 10.742188 -1.507812 10.140625 -0.90625 C 9.535156 -0.300781 8.660156 0 7.515625 0 L 4.78125 0 C 3.632812 0 2.753906 -0.300781 2.140625 -0.90625 C 1.523438 -1.507812 1.21875 -2.382812 1.21875 -3.53125 L 1.21875 -16.078125 C 1.21875 -17.234375 1.523438 -18.109375 2.140625 -18.703125 C 2.753906 -19.296875 3.632812 -19.59375 4.78125 -19.59375 L 7.515625 -19.59375 C 8.660156 -19.59375 9.535156 -19.296875 10.140625 -18.703125 C 10.742188 -18.109375 11.046875 -17.234375 11.046875 -16.078125 Z M 11.046875 -16.078125 "/></g></g></g><g fill="#2a2623" fill-opacity="1"><g transform="translate(210.745733, 189.58654)"><g><path d="M 13.03125 0 L 10.4375 0 C 10.226562 0 10.097656 -0.113281 10.046875 -0.34375 L 9.359375 -3.921875 L 5 -3.921875 L 4.34375 -0.34375 C 4.289062 -0.113281 4.15625 0 3.9375 0 L 1.328125 0 C 1.023438 0 0.914062 -0.140625 1 -0.421875 L 5.078125 -19.25 C 5.117188 -19.476562 5.253906 -19.59375 5.484375 -19.59375 L 8.890625 -19.59375 C 9.117188 -19.59375 9.257812 -19.476562 9.3125 -19.25 L 13.375 -0.421875 C 13.425781 -0.140625 13.3125 0 13.03125 0 Z M 8.75 -6.765625 L 7.171875 -15.3125 L 5.609375 -6.765625 Z M 8.75 -6.765625 "/></g></g></g><g fill="#2a2623" fill-opacity="1"><g transform="translate(225.098134, 189.58654)"><g><path d="M 11.296875 -16.078125 L 11.296875 -10.09375 C 11.296875 -8.457031 10.695312 -7.378906 9.5 -6.859375 L 11.203125 -0.4375 C 11.273438 -0.144531 11.160156 0 10.859375 0 L 8.3125 0 C 8.082031 0 7.941406 -0.113281 7.890625 -0.34375 L 6.25 -6.5625 L 4.5625 -6.5625 L 4.5625 -0.390625 C 4.5625 -0.128906 4.429688 0 4.171875 0 L 1.609375 0 C 1.347656 0 1.21875 -0.128906 1.21875 -0.390625 L 1.21875 -19.203125 C 1.21875 -19.460938 1.347656 -19.59375 1.609375 -19.59375 L 7.765625 -19.59375 C 8.921875 -19.59375 9.796875 -19.296875 10.390625 -18.703125 C 10.992188 -18.109375 11.296875 -17.234375 11.296875 -16.078125 Z M 4.5625 -9.796875 L 6.984375 -9.796875 C 7.640625 -9.796875 7.96875 -10.125 7.96875 -10.78125 L 7.96875 -15.390625 C 7.96875 -16.035156 7.640625 -16.359375 6.984375 -16.359375 L 4.5625 -16.359375 Z M 4.5625 -9.796875 "/></g></g></g><g fill="#2a2623" fill-opacity="1"><g transform="translate(237.613621, 189.58654)"><g><path d="M 11 -19.203125 L 11 -16.765625 C 11 -16.484375 10.867188 -16.34375 10.609375 -16.34375 L 4.484375 -16.34375 L 4.484375 -11.4375 L 9.15625 -11.4375 C 9.425781 -11.4375 9.5625 -11.300781 9.5625 -11.03125 L 9.5625 -8.59375 C 9.5625 -8.320312 9.425781 -8.1875 9.15625 -8.1875 L 4.484375 -8.1875 L 4.484375 -3.234375 L 10.609375 -3.234375 C 10.867188 -3.234375 11 -3.101562 11 -2.84375 L 11 -0.390625 C 11 -0.128906 10.867188 0 10.609375 0 L 1.59375 0 C 1.34375 0 1.21875 -0.128906 1.21875 -0.390625 L 1.21875 -19.203125 C 1.21875 -19.460938 1.34375 -19.59375 1.59375 -19.59375 L 10.609375 -19.59375 C 10.867188 -19.59375 11 -19.460938 11 -19.203125 Z M 11 -19.203125 "/></g></g></g></svg>